<?xml version="1.0" encoding="iso-8859-1"?>
<!-- Uploaded to: SVG Repo, www.svgrepo.com, Generator: SVG Repo Mixer Tools -->
<svg version="1.1" id="Layer_1" xmlns="http://www.w3.org/2000/svg" xmlns:xlink="http://www.w3.org/1999/xlink" 
	 viewBox="0 0 511.99 511.99" xml:space="preserve">
<rect y="117.33" style="fill:#F6BB42;" width="511.99" height="128"/>
<rect y="74.66" style="fill:#FFCE54;" width="511.99" height="128"/>
<g>
	<path style="fill:#F6BB42;" d="M74.67,138.654c5.89,0,10.671-4.766,10.671-10.671c0-5.891-4.781-10.656-10.671-10.656H0v21.328
		h74.67V138.654z"/>
	<path style="fill:#F6BB42;" d="M415.988,159.981c-31.546,0-50.045,13.593-60.013,24.983c-5.641,6.437-9.219,12.859-11.391,17.687
		h24.515c7.108-9.781,20.999-21.328,46.889-21.328h95.998V159.98h-95.998V159.981z"/>
	<rect y="309.33" style="fill:#F6BB42;" width="511.99" height="128"/>
</g>
<rect y="266.65" style="fill:#FFCE54;" width="511.99" height="127.99"/>
<g>
	<path style="fill:#F6BB42;" d="M159.995,319.984c31.562,0,50.061-13.594,60.029-24.967c10.719-12.25,13.984-24.43,14.328-25.773
		c0.219-0.875,0.297-1.734,0.297-2.594h-21.906c-1.25,3.156-3.906,8.742-8.766,14.305c-10.28,11.75-25.062,17.688-43.983,17.688H0
		v21.342L159.995,319.984L159.995,319.984z"/>
	<path style="fill:#F6BB42;" d="M458.659,298.642c-5.891,0-10.672,4.781-10.672,10.686c0,5.875,4.781,10.656,10.672,10.656h53.327
		v-21.342H458.659z"/>
	<path style="fill:#F6BB42;" d="M394.691,341.327c-5.89,0-10.671,4.75-10.671,10.656s4.781,10.656,10.671,10.656h117.295v-21.312
		H394.691z"/>
</g>
</svg>