<?xml version="1.0" encoding="iso-8859-1"?>
<!-- Uploaded to: SVG Repo, www.svgrepo.com, Generator: SVG Repo Mixer Tools -->
<svg height="800px" width="800px" version="1.1" id="Capa_1" xmlns="http://www.w3.org/2000/svg" xmlns:xlink="http://www.w3.org/1999/xlink" 
	 viewBox="0 0 57.241 57.241" xml:space="preserve">
<g>
	<path style="fill:#030104;" d="M56.787,47.894L56.787,47.894c-0.315-0.241-1.029-0.712-1.47-0.767l-0.929-0.155
		c-0.252-0.05-0.685-0.202-0.943-0.331l-1.036-0.57c-0.321-0.191-0.977-0.473-1.518-0.611c-0.487-0.125-1.423-0.281-2.094-0.371
		c-0.596-0.08-1.118-0.367-1.232-0.5c-0.235-0.273-0.462-0.448-0.642-0.51c-0.036-0.025-0.258-0.21-1.014-1.302
		c-0.343-0.496-0.755-1.207-1.118-1.835c-0.263-0.454-0.511-0.883-0.716-1.205c-0.507-0.797-0.943-1.242-1.373-1.403
		c-0.45-0.169-1.04-0.875-1.431-1.343c-0.29-0.347-0.449-0.532-0.58-0.617c-0.257-0.243-1.449-2.369-2.188-4.376
		c-0.788-2.142-1.397-3.881-1.804-5.41c-0.069-0.259-0.129-0.549-0.196-0.874c-0.269-1.292-0.637-3.062-1.979-5.515
		c-0.85-1.554-2.554-3.932-3.799-5.3c-1.843-2.024-3.511-3.16-5.123-4.258c-0.531-0.361-1.063-0.724-1.604-1.118
		c-2.507-1.832-4.979-2.178-7.86-1.023c-2.395,0.958-2.757,4.542-2.773,4.741v1.177c0,0.624-0.17,1.396-0.322,1.7l-1.024,2.214
		c-0.375,0.843-0.814,2.351-0.999,3.433c-0.175,1.019-0.671,2.93-1.105,4.261c-0.42,1.287-1.163,2.854-1.624,3.424l-1.935,2.471
		c-0.598,0.787-1.219,1.86-1.412,2.444l-0.33,0.993L4.08,37.39c-0.291,1.102-0.809,2.682-1.154,3.518l-0.628,1.519L1.033,44.96
		l-0.48,0.802C0.496,45.856,0,46.697,0,47.142c0,0.34,0.223,0.774,0.43,1.034c0.291,0.362,0.97,0.635,1.49,0.717
		c0.506,0.078,1.338,0.14,1.895,0.14h5.08c0.932,0,2.11-0.107,2.559-0.312l0.588-0.267c0.115-0.053,0.469-0.212,0.516-0.579
		c0.027-0.208-0.059-0.408-0.231-0.549c-0.209-0.17-0.517-0.251-0.843-0.336c-0.104-0.027-0.207-0.054-0.297-0.083l-2.261-0.814
		l-1.519-0.627l-0.48-0.239c-0.243-0.123-0.566-0.312-0.706-0.413c-0.027-0.02-0.051-0.052-0.061-0.027
		c0.016-0.126,0.057-0.339,0.094-0.498c0.039-0.174,0.127-0.456,0.192-0.628c0.067-0.174,0.187-0.434,0.268-0.583l1.011-1.944
		l0.674-1.195l1.129-1.665l1.459-2.271l1.689-2.961l1.004-1.48l0.615-0.829c0.348-0.468,0.842-1.222,1.103-1.682l0.858-1.527
		c0.235-0.425,0.564-1.119,0.749-1.582c0.159-0.398,0.361-0.715,0.411-0.766c0.326-0.23,1.193-1.338,1.229-1.385l0.837-1.072
		l0.4-0.455c0.266-0.3,0.75-1.004,1.066-1.511c0.324-0.522,0.748-1.148,0.925-1.365c0.05-0.062,0.104-0.118,0.155-0.168
		c0.062,0.292,0.122,0.765,0.135,1.075c0.016,0.4,0.078,0.963,0.142,1.282c0.071,0.355,0.236,0.806,0.385,1.045
		c0.139,0.226,0.399,0.553,0.607,0.761l1.26,1.312c-0.025,0.366-0.015,0.771,0.08,1.258c0.203,1.051,1.304,2.056,2.354,2.15
		c0.215,0.02,0.414,0.029,0.599,0.029c0.302,0,0.55-0.036,0.774-0.088l0.066,0.001c0.161,0.011,0.35,0.079,0.394,0.109
		c0.068,0.055,0.327,0.344,0.617,0.724c0.196,0.257,0.605,0.792,0.667,1.077c0.055,0.25,0.305,0.703,0.647,1.232
		c-0.166,0.084-0.336,0.156-0.49,0.267c-2.001,1.432-2.206,4.583-0.458,7.027c1.748,2.443,4.797,3.267,6.798,1.836
		c0.348-0.249,0.621-0.565,0.86-0.904c0.134,0.155,0.28,0.328,0.45,0.534l0.876,1.067l2.953,3.221l1.069,1.069
		c0.612,0.612,1.387,1.313,1.765,1.598c0.374,0.279,0.961,0.581,1.363,0.581c0.001,0,0.001,0,0.001,0
		c0.102,0.008,0.487,0.159,0.834,0.412c0.35,0.255,0.814,0.662,1.015,0.889c0.319,0.361,0.871,0.624,1.312,0.624h7.059
		c0.709,0,0.958-0.295,1.042-0.543C57.271,48.672,57.303,48.29,56.787,47.894z M20.1,20.222c-0.323,0.521-0.766,1.15-0.967,1.377
		l-1.275,1.574c-0.512,0.656-0.932,1.114-1.016,1.181c-0.379,0.266-0.727,1.117-0.766,1.214c-0.168,0.423-0.481,1.081-0.694,1.467
		l-0.854,1.519c-0.244,0.431-0.709,1.14-1.036,1.58l-1.664,2.376l-1.699,2.976l-2.58,3.925l-1.713,3.188
		c-0.098,0.177-0.241,0.491-0.322,0.702c-0.082,0.211-0.186,0.552-0.234,0.762c-0.049,0.211-0.102,0.501-0.116,0.644
		c-0.042,0.364,0.214,0.73,0.47,0.916c0.184,0.134,0.547,0.348,0.846,0.498l2.08,0.902l1.734,0.65l0.585,0.186
		c-0.356,0.083-1.144,0.174-1.983,0.174h-5.08c-0.506,0-1.286-0.058-1.74-0.128c-0.404-0.063-0.789-0.266-0.863-0.353
		C1.089,47.396,1.008,47.193,1,47.166c0.016-0.097,0.164-0.478,0.412-0.891l0.499-0.835l1.298-2.599l0.643-1.551
		c0.36-0.872,0.898-2.508,1.197-3.647l0.525-2.001l0.32-0.962c0.16-0.48,0.738-1.467,1.262-2.155l1.006-1.324l0.909-1.123
		c0.542-0.669,1.331-2.313,1.798-3.742c0.447-1.369,0.959-3.344,1.141-4.402c0.17-0.996,0.586-2.43,0.927-3.195l0.632-1.424
		l0.373-0.749c0.1-0.198,0.183-0.477,0.255-0.778c1.421,0.112,6.092,0.704,6.474,3.564C20.484,19.62,20.282,19.929,20.1,20.222z
		 M21.603,18.28c-0.052,0.038-0.104,0.073-0.152,0.115c-1.09-2.859-5.546-3.476-7.104-3.601c0.01-0.127,0.022-0.256,0.022-0.376
		l-0.002-1.13c0.003-0.031,0.313-3.126,2.147-3.86c2.554-1.023,4.673-0.725,6.898,0.901c0.324,0.237,0.643,0.451,0.962,0.672
		C21.893,13.435,21.625,17.194,21.603,18.28z M24.451,23.136l-0.445-0.462c-0.148-0.149-0.365-0.42-0.463-0.578
		c-0.078-0.127-0.205-0.461-0.256-0.718c-0.054-0.267-0.111-0.781-0.125-1.124c-0.016-0.399-0.092-0.98-0.173-1.326
		c-0.071-0.296-0.21-0.523-0.384-0.676c0.031-1.027,0.315-4.545,2.61-6.666c1.572,1.072,3.071,2.118,4.772,3.987
		c0.711,0.781,1.574,1.901,2.332,2.997C29.788,21.689,25.365,22.913,24.451,23.136z M28.97,27.138
		c-0.167-0.052-0.337-0.083-0.476-0.092c-0.054-0.003-0.644,0.129-1.412,0.059c-0.617-0.056-1.342-0.722-1.463-1.345
		c-0.137-0.714-0.142-1.562-0.304-1.724l-0.071-0.074c1.584-0.445,5.251-1.729,7.659-4.523c0.286,0.444,0.542,0.867,0.746,1.24
		c0.597,1.09,0.985,2.035,1.261,2.863c-2.488,3.05-5.906,3.585-5.941,3.59L28.97,27.138z M36.008,39.478
		c-1.539,1.101-3.945,0.384-5.362-1.598c-1.417-1.981-1.317-4.488,0.222-5.589c0.148-0.106,0.312-0.181,0.475-0.254
		c0.324,0.449,0.677,0.909,1.019,1.325l2.344,2.85c1.019,1.239,1.705,2.052,2.045,2.428C36.557,38.963,36.319,39.256,36.008,39.478z
		 M49.104,48.407c-0.139,0-0.426-0.132-0.562-0.286c-0.248-0.28-0.765-0.734-1.176-1.034c-0.398-0.291-1.012-0.604-1.414-0.604
		c-0.098-0.006-0.46-0.146-0.772-0.381c-0.334-0.251-1.094-0.94-1.658-1.505l-1.052-1.051l-2.926-3.191l-0.854-1.043
		c-0.203-0.246-0.495-0.597-0.73-0.859l-0.811-0.874c-0.373-0.436-0.948-1.119-1.674-2.001l-2.342-2.85
		c-0.267-0.324-0.508-0.636-0.729-0.933l-0.676-0.95c-0.38-0.567-0.61-0.978-0.643-1.104c-0.1-0.464-0.474-0.981-0.849-1.473
		c-0.038-0.049-0.146-0.188-0.271-0.34c1.186-0.331,3.387-1.184,5.28-3.243c0.114,0.452,0.203,0.864,0.279,1.231
		c0.071,0.345,0.136,0.652,0.209,0.928c0.418,1.565,1.034,3.33,1.833,5.498c0.67,1.819,2.023,4.494,2.538,4.838
		c0.064,0.05,0.251,0.272,0.4,0.451c0.485,0.581,1.15,1.375,1.847,1.637c0.054,0.021,0.345,0.162,0.881,1.005
		c0.199,0.312,0.44,0.729,0.694,1.169c0.391,0.675,0.795,1.373,1.16,1.903c0.958,1.382,1.226,1.566,1.436,1.645
		c0.011,0.004,0.108,0.044,0.284,0.249c0.326,0.381,1.125,0.741,1.857,0.839c0.626,0.084,1.532,0.235,1.979,0.35
		c0.427,0.109,1.003,0.353,1.251,0.501l1.104,0.607c0.336,0.168,0.86,0.351,1.193,0.417l0.996,0.167
		c0.077,0.014,0.305,0.117,0.581,0.287C55.767,48.407,49.104,48.407,49.104,48.407z"/>
</g>
</svg>