<?xml version="1.0" encoding="UTF-8" standalone="no"?>
<!-- Uploaded to: SVG Repo, www.svgrepo.com, Generator: SVG Repo Mixer Tools -->

<svg
   height="799.99994"
   width="799.99994"
   version="1.1"
   id="Layer_1"
   viewBox="0 0 512.00096 512.00096"
   xml:space="preserve"
   xmlns="http://www.w3.org/2000/svg"
   id="defs9"><rect
     x="93.671066"
     y="624.96167"
     width="463.2327"
     height="39.517479"
     id="rect17" />
<path
   style="fill:#8de0a8"
   d="m 434.881,225.778 c 8.462,9.997 13.587,22.926 13.587,37.056 0,31.688 -25.685,57.374 -57.374,57.374 -5.01,0 -9.87,-0.646 -14.511,-1.859 0.439,2.563 0.681,5.195 0.681,7.885 0,25.524 -20.698,46.222 -46.222,46.222 -14.395,0 -27.267,-6.58 -35.74,-16.912 l -13.645,0.566 -68.006,2.805 c -3.186,3.175 -6.823,5.899 -10.805,8.046 -6.511,3.509 -13.968,5.495 -21.887,5.495 -25.524,0 -46.222,-20.698 -46.222,-46.222 0,-2.69 0.242,-5.322 0.681,-7.885 -4.629,1.212 -9.501,1.859 -14.511,1.859 -31.688,0 -57.374,-25.685 -57.374,-57.374 0,-14.13 5.126,-27.059 13.599,-37.056 -14.199,-10.436 -23.423,-27.255 -23.423,-46.234 0,-24.889 15.861,-46.072 38.014,-54.014 -3.602,-7.504 -5.61,-15.908 -5.61,-24.773 0,-31.688 25.685,-57.374 57.362,-57.374 1.316,0 2.62,0.058 3.913,0.15 2.782,-22.88 22.257,-40.6 45.876,-40.6 11.059,0 21.195,3.879 29.149,10.355 C 231.199,5.056 243.008,0 256.007,0 c 12.987,0 24.797,5.056 33.582,13.287 7.954,-6.476 18.101,-10.355 29.149,-10.355 23.631,0 43.094,17.72 45.876,40.6 1.293,-0.092 2.597,-0.15 3.913,-0.15 31.688,0 57.374,25.685 57.374,57.374 0,8.866 -2.02,17.27 -5.622,24.773 22.165,7.942 38.014,29.126 38.014,54.014 0,18.979 -9.212,35.799 -23.412,46.235 z"
   id="path1" />
<g
   id="g3">
	<path
   style="fill:#7bc690"
   d="m 181.49,326.235 c 0,-2.69 0.242,-5.321 0.683,-7.885 -4.637,1.21 -9.501,1.857 -14.517,1.857 -31.684,0 -57.368,-25.684 -57.368,-57.368 0,-14.131 5.12,-27.061 13.592,-37.06 -14.2,-10.443 -23.42,-27.261 -23.42,-46.238 0,-24.891 15.856,-46.071 38.014,-54.012 -3.598,-7.501 -5.615,-15.904 -5.615,-24.778 0,-31.684 25.684,-57.368 57.368,-57.368 1.318,0 2.622,0.06 3.918,0.148 C 195.918,28.917 204.51,16.414 216.64,9.282 209.782,5.25 201.797,2.927 193.265,2.927 c -23.625,0 -43.096,17.727 -45.871,40.604 -1.296,-0.088 -2.6,-0.148 -3.918,-0.148 -31.684,0 -57.368,25.684 -57.368,57.368 0,8.875 2.017,17.278 5.615,24.778 -22.159,7.941 -38.014,29.122 -38.014,54.012 0,18.978 9.221,35.796 23.42,46.238 -8.472,9.998 -13.592,22.928 -13.592,37.06 0,31.684 25.684,57.368 57.368,57.368 5.016,0 9.879,-0.648 14.517,-1.857 -0.441,2.564 -0.683,5.195 -0.683,7.885 0,25.528 20.695,46.223 46.223,46.223 8.531,0 16.516,-2.32 23.375,-6.35 -13.666,-8.031 -22.847,-22.877 -22.847,-39.873 z"
   id="path2" />
	<path
   style="fill:#7bc690"
   d="m 369.334,240.704 -64.381,64.381 c -13.691,13.691 -21.934,31.827 -23.296,51.025 l -68.006,2.805 c -3.186,3.175 -6.823,5.899 -10.805,8.046 v -48.6 c 0,-14.072 -5.587,-27.579 -15.55,-37.541 l -45.455,-61.568 13.778,-14.011 74.304,68.419 -3.257,-56.962 54.782,-27.861 v 92.11 l 78.737,-80.373 z"
   id="path3" />
</g>
<path
   style="fill:#fcd577"
   d="m 383.187,240.704 -64.381,64.381 c -15.042,15.042 -23.504,35.452 -23.504,56.727 V 512 H 216.7 V 318.361 c 0,-14.072 -5.587,-27.579 -15.55,-37.541 l -66.413,-66.413 13.287,-13.299 10.528,-10.528 58.147,58.147 v -59.89 h 78.603 v 92.11 l 64.069,-64.069 8.785,8.785 0.439,0.45 z"
   id="path4" />
<g
   id="g6">
	<path
   style="fill:#eac36e"
   d="m 368.596,226.113 -61,61 c -4.537,4.537 -12.293,1.324 -12.293,-5.092 v -1.074 l 64.069,-64.069 8.785,8.785 z"
   id="path5" />
	<path
   style="fill:#eac36e"
   d="m 216.7,187.699 v 68.993 c 0,7.621 -9.316,11.325 -14.549,5.784 l -54.126,-57.325 v -4.04 l -13.287,13.299 66.413,66.413 c 9.962,9.962 15.55,23.469 15.55,37.541 v 21.518 172.121 h 24.446 V 187.699 Z"
   id="path6" />
</g>
<g
   id="g9">
	<path
   style="fill:#7bc690"
   d="m 304.15,171.06 -1.557,1.769 c -0.522,0.577 -1.126,1.089 -1.661,1.637 -1.037,1.131 -2.345,1.994 -3.461,2.985 -0.588,0.469 -1.242,0.861 -1.847,1.294 -0.612,0.427 -1.212,0.857 -1.884,1.19 l -1.909,1.102 c -0.653,0.332 -1.33,0.619 -1.982,0.933 -5.258,2.488 -10.931,3.454 -16.491,3.385 -5.585,-0.084 -11.014,-1.508 -15.927,-4.057 l -0.384,-0.201 c -2.572,-1.326 -5.767,-1.253 -8.344,0.468 -3.541,2.363 -7.628,3.87 -11.993,4.357 -1.094,0.134 -2.195,0.094 -3.312,0.173 l -1.663,-0.089 -0.842,-0.036 -0.828,-0.126 c -2.263,-0.188 -4.428,-0.907 -6.661,-1.63 -1.057,-0.477 -2.19,-0.877 -3.208,-1.491 -0.518,-0.291 -1.099,-0.517 -1.59,-0.862 l -1.532,-0.995 c -1.98,-1.421 -3.96,-3.026 -5.646,-4.979 l -0.665,-0.719 c -0.211,-0.248 -0.391,-0.515 -0.591,-0.773 l -1.231,-1.569 -1.078,-1.696 -0.562,-0.863 -0.472,-0.907 -0.978,-1.856 -0.825,-1.957 c -0.14,-0.331 -0.296,-0.665 -0.425,-1.003 l -0.339,-1.031 -0.728,-2.119 c -0.179,0.72 -0.357,1.455 -0.51,2.201 l -0.23,1.129 c -0.051,0.377 -0.076,0.755 -0.114,1.136 -0.076,0.764 -0.12,1.535 -0.172,2.319 0.002,0.773 0.038,1.552 0.081,2.338 0.015,1.594 0.389,3.125 0.65,4.725 0.443,1.523 0.786,3.148 1.472,4.622 0.317,0.75 0.607,1.53 0.966,2.272 l 1.195,2.174 c 0.383,0.747 0.879,1.411 1.347,2.107 0.486,0.679 0.927,1.415 1.495,2.032 2.121,2.632 4.672,4.954 7.521,6.938 0.712,0.493 1.47,0.919 2.213,1.378 0.746,0.457 1.51,0.884 2.315,1.233 l 2.403,1.096 2.505,0.86 1.266,0.412 1.295,0.296 2.612,0.564 2.654,0.298 c 0.889,0.1 1.78,0.185 2.676,0.187 5.498,0.126 11.091,-1.019 16.2,-3.28 6.356,2.791 13.366,4.159 20.251,3.816 8.427,-0.433 16.814,-3.064 23.542,-7.932 3.459,-2.282 6.343,-5.286 8.934,-8.369 1.206,-1.636 2.422,-3.233 3.369,-5.008 0.485,-0.876 1.026,-1.705 1.423,-2.622 l 1.175,-2.729 c 0.42,-0.883 0.679,-1.846 0.962,-2.783 0.262,-0.947 0.592,-1.853 0.779,-2.809 0.345,-1.923 0.753,-3.785 0.794,-5.709 0.337,-3.782 -0.209,-7.569 -1.136,-11.068 -2.177,6.987 -5.182,13.011 -9.317,17.842 z"
   id="path7" />
	<path
   style="fill:#7bc690"
   d="m 389.094,232.786 c -5.324,-1.324 -9.563,-3.834 -13.011,-7.229 -3.411,-3.434 -5.924,-7.681 -7.254,-13.011 -1.31,-5.352 -1.253,-11.552 1.132,-19.132 -3.84,1.181 -7.195,3.801 -9.775,7.161 -2.555,3.378 -4.301,7.545 -4.941,11.972 -0.652,4.426 -0.219,9.104 1.274,13.489 1.481,4.389 4.035,8.47 7.321,11.764 3.287,3.295 7.367,5.853 11.758,7.337 4.387,1.495 9.067,1.937 13.496,1.283 4.429,-0.64 8.601,-2.386 11.98,-4.945 3.359,-2.586 5.979,-5.947 7.152,-9.795 -7.595,2.368 -13.786,2.413 -19.132,1.106 z"
   id="path8" />
	<path
   style="fill:#7bc690"
   d="m 147.838,168.899 c 0.717,3.435 1.189,6.313 1.314,9.026 0.006,0.687 0.077,1.321 0.06,1.972 -0.044,0.661 -0.031,1.279 -0.048,1.892 -0.135,1.253 -0.187,2.414 -0.398,3.558 -0.362,2.271 -0.891,4.356 -1.556,6.318 -0.71,1.954 -1.567,3.76 -2.552,5.489 -0.459,0.888 -1.063,1.683 -1.59,2.548 -0.635,0.785 -1.204,1.642 -1.884,2.433 -1.336,1.597 -2.863,3.076 -4.625,4.547 -1.772,1.455 -3.812,2.817 -6.208,4.084 -2.408,1.284 -5.13,2.328 -8.448,3.454 1.19,1.271 2.593,2.34 4.128,3.143 1.532,0.862 3.194,1.437 4.93,1.891 1.732,0.379 3.547,0.646 5.373,0.612 1.838,0.03 3.685,-0.207 5.511,-0.618 7.328,-1.673 14.048,-6.668 17.834,-13.487 1.926,-3.378 3.178,-7.139 3.631,-10.958 0.416,-3.826 0.048,-7.688 -1.078,-11.247 -2.188,-7.116 -7.662,-13.024 -14.394,-14.657 z"
   id="path9" />
</g>
<ellipse
   style="fill:#415e72"
   cx="251.26801"
   cy="356.77899"
   rx="18.181"
   ry="41.556"
   id="ellipse9" />
<g
   
   id="layer1">
   <text
     transform="matrix(0.79959266,0,0,0.70767014,11.181976,-47.254989)"
     id="text17"
     style="font-style:normal;font-variant:normal;font-weight:normal;font-stretch:normal;font-size:85.3333px;line-height:0ex;font-family:'Cambria Math';-inkscape-font-specification:'Cambria Math';text-align:end;writing-mode:lr-tb;direction:ltr;white-space:pre;shape-inside:url(#rect17);display:inline;fill:#000000;stroke-width:10.0724;stroke-dasharray:none"><tspan
       x="70.90429"
       y="588.66926"
       id="tspan2"><tspan
         style="fill:#504416"
         id="tspan1">בידיים           שלנו</tspan></tspan></text></g></svg>
